<svg xmlns="http://www.w3.org/2000/svg" viewBox="0 0 1541.76 875.45"><defs><style>.cls-1{fill:#2770bf;}.cls-2{fill:#f5d23d;}</style></defs><g id="Layer_2" data-name="Layer 2"><g id="Layer_1-2" data-name="Layer 1"><path class="cls-1" d="M440.91,319.28A232.29,232.29,0,0,0,356.5,234q-53.14-31.28-120-31.3T116.13,234a231.13,231.13,0,0,0-84.88,85.29Q0,373.25,0,441T28.69,562.21Q57.42,615.76,107.1,647t112.28,31.3q62.55,0,112.28-31.3a218.07,218.07,0,0,0,53.11-46.79v31.81c0,12.6,4.13,23,12.42,31.3s18.75,12.42,31.3,12.42,23-4.13,31.26-12.42,12.46-18.7,12.46-31.3V441Q472.21,373.24,440.91,319.28ZM368.5,522.8q-19.72,36.44-54,57.42t-78,21q-42.83,0-77.54-21T104.12,522.8Q84,486.37,84,441q0-46.26,20.16-82.67T159,300.86q34.71-21,77.54-21,43.72,0,78,21t54,57.42q19.74,36.44,19.71,82.67Q388.21,486.4,368.5,522.8Z"/><path class="cls-1" d="M595.26,218.14c8,8,12,18.56,12,31.71V673.21q0,59.12-26.17,104.53a191.51,191.51,0,0,1-71.54,71.59q-45.43,26.11-105.4,26.12c-12.61,0-22.87-4.13-30.89-12.42s-12-18.74-12-31.3c0-13.15,4-23.69,12-31.71s18.28-12,30.89-12q34.23,0,60-15a111.06,111.06,0,0,0,40.69-40.69q15-25.71,15-59.12V249.85c0-13.15,4.12-23.69,12.42-31.71s18.69-12,31.3-12C576.65,206.13,587.24,210.16,595.26,218.14Z"/><path class="cls-1" d="M1043.46,642.78c-.87,10.59-6.19,19.84-15.86,27.86-9.16,7.43-19.29,10.68-30.43,9.86s-20.44-5.87-27.86-15L806.62,464.33l-43,37.71V632.93q0,18.83-11.55,30.43t-30.43,11.55q-18.9,0-30.43-11.55c-7.7-7.75-11.59-17.88-11.59-30.43V244.72c0-12.56,3.89-22.73,11.59-30.43s17.83-11.6,30.43-11.6,22.69,3.9,30.43,11.6,11.55,17.87,11.55,30.43V397.19L976.69,210.48c8.57-8,18.1-11.68,28.68-11.13s19.57,5.13,27,13.75c8,8.57,11.68,18,11.13,28.27s-5.13,19.43-13.7,27.41L868.53,410.11l165,203.11Q1044.69,626.9,1043.46,642.78Z"/><path class="cls-1" d="M1467,460.25q11.15-10.72,11.14-27,0-67.71-25.3-119.56t-73.28-81.39q-48-29.56-114.79-29.61-67.73,0-120,30.43t-81.85,84q-29.57,53.55-29.56,123.82,0,69.44,31.25,123t86.57,83.95q55.27,30.45,126.4,30.43,39.39,0,82.72-14.57t72.41-37.72c9.71-7.42,14.25-16.27,13.7-26.53s-5.73-19.71-15.45-28.28a37.34,37.34,0,0,0-26.12-9,49,49,0,0,0-27.86,9.86q-17.12,12.85-45,22.73t-54.44,9.85q-48.81,0-86.57-21.45A156.09,156.09,0,0,1,1112.8,471h325.88Q1455.79,471,1467,460.25Zm-353.19-57.84a177.7,177.7,0,0,1,14.66-45.87,138.23,138.23,0,0,1,52.71-58.71q34.71-21.37,83.59-21.4,42.83,0,72.82,19.71t46.28,53.57a170.7,170.7,0,0,1,15.31,52.7Z"/><circle class="cls-2" cx="1478.09" cy="63.68" r="63.68"/></g></g></svg>